<?xml version="1.0" encoding="UTF-8"?>
<svg width="10px" height="12px" viewBox="0 0 10 12" version="1.1" xmlns="http://www.w3.org/2000/svg" xmlns:xlink="http://www.w3.org/1999/xlink">
    <!-- Generator: sketchtool 64 (101010) - https://sketch.com -->
    <title>52FB4CB8-43C7-41F7-86AD-7A0A8D7D85DA</title>
    <desc>Created with sketchtool.</desc>
    <g id="Aktualne" stroke="none" stroke-width="1" fill="none" fill-rule="evenodd">
        <g id="1.-Jako-ADMIN-chcę-zobaczyć-listę-poziomów-dyrektorskich" transform="translate(-1289.000000, -250.000000)">
            <g id="Tabela" transform="translate(260.000000, 175.000000)">
                <g id="Wiersz">
                    <g transform="translate(0.000000, 56.000000)">
                        <g id="Button/BasicViolet/MałyUsuń" transform="translate(1016.000000, 8.000000)">
                            <g id="delete-24px" transform="translate(10.000000, 9.000000)">
                                <polygon id="Path" points="0 0 16 0 16 16 0 16"></polygon>
                                <path d="M4,12.6666667 C4,13.4 4.6,14 5.33333333,14 L10.6666667,14 C11.4,14 12,13.4 12,12.6666667 L12,6 C12,5.26666667 11.4,4.66666667 10.6666667,4.66666667 L5.33333333,4.66666667 C4.6,4.66666667 4,5.26666667 4,6 L4,12.6666667 Z M12,2.66666667 L10.3333333,2.66666667 L9.86,2.19333333 C9.74,2.07333333 9.56666667,2 9.39333333,2 L6.60666667,2 C6.43333333,2 6.26,2.07333333 6.14,2.19333333 L5.66666667,2.66666667 L4,2.66666667 C3.63333333,2.66666667 3.33333333,2.96666667 3.33333333,3.33333333 C3.33333333,3.7 3.63333333,4 4,4 L12,4 C12.3666667,4 12.6666667,3.7 12.6666667,3.33333333 C12.6666667,2.96666667 12.3666667,2.66666667 12,2.66666667 Z" id="Shape" fill="#FFFFFF" fill-rule="nonzero"></path>
                            </g>
                        </g>
                    </g>
                </g>
            </g>
        </g>
    </g>
</svg>