<?xml version="1.0" encoding="UTF-8"?>
<svg width="12px" height="12px" viewBox="0 0 12 12" version="1.1" xmlns="http://www.w3.org/2000/svg" xmlns:xlink="http://www.w3.org/1999/xlink">
    <!-- Generator: sketchtool 64 (101010) - https://sketch.com -->
    <title>DBA41977-50DC-4002-B9CE-64C79B0E17F3</title>
    <desc>Created with sketchtool.</desc>
    <g id="Aktualne" stroke="none" stroke-width="1" fill="none" fill-rule="evenodd">
        <g id="1.-Jako-ADMIN-chcę-zobaczyć-listę-poziomów-dyrektorskich" transform="translate(-1242.000000, -250.000000)">
            <g id="Tabela" transform="translate(260.000000, 175.000000)">
                <g id="Wiersz">
                    <g transform="translate(0.000000, 56.000000)">
                        <g id="Button/BasicViolet/Mały/Edytuj" transform="translate(970.000000, 8.000000)">
                            <g id="edit-24px" transform="translate(10.000000, 9.000000)">
                                <polygon id="Path" points="0 0 16 0 16 16 0 16"></polygon>
                                <path d="M2,11.6416667 L2,13.6683333 C2,13.855 2.14666667,14.0016667 2.33333333,14.0016667 L4.36,14.0016667 C4.44666667,14.0016667 4.53333333,13.9683333 4.59333333,13.9016667 L11.8733333,6.62833333 L9.37333333,4.12833333 L2.1,11.4016667 C2.03333333,11.4683333 2,11.5483333 2,11.6416667 Z M13.8066667,4.695 C14.0666667,4.435 14.0666667,4.015 13.8066667,3.755 L12.2466667,2.195 C11.9866667,1.935 11.5666667,1.935 11.3066667,2.195 L10.0866667,3.415 L12.5866667,5.915 L13.8066667,4.695 Z" id="Shape" fill="#FFFFFF" fill-rule="nonzero"></path>
                            </g>
                        </g>
                    </g>
                </g>
            </g>
        </g>
    </g>
</svg>